<svg xmlns="http://www.w3.org/2000/svg" width="75" height="76.518" viewBox="0 0 75 76.518">
  <g id="forest" transform="translate(-5.076)">
    <path id="Path_18" data-name="Path 18" d="M174.781,104.244a16.976,16.976,0,0,0-33.853,0,16.977,16.977,0,1,0,16.927,28.732,16.977,16.977,0,1,0,16.927-28.732Z" transform="translate(-105.969 -75.331)" fill="#c3ea21"/>
    <path id="Path_19" data-name="Path 19" d="M335.221,104.244a16.977,16.977,0,0,0-16.927-15.677v44.41a16.977,16.977,0,1,0,16.927-28.732Z" transform="translate(-266.408 -75.331)" fill="#8adb53"/>
    <path id="Path_20" data-name="Path 20" d="M270.186,222.454l-2.087-3.968-5.926,3.116v-6.551h-4.483v14.685l-5.927-3.116-2.087,3.968,8.013,4.213V259.43h4.483V226.667Z" transform="translate(-208.045 -182.912)" fill="#ba7400"/>
    <path id="Path_21" data-name="Path 21" d="M21.966,55.695h0A16.888,16.888,0,0,1,5.2,36.759l3-24.575A13.865,13.865,0,0,1,21.966,0h0A13.865,13.865,0,0,1,35.729,12.184l3,24.575A16.888,16.888,0,0,1,21.966,55.695Z" fill="#4fc16e"/>
    <path id="Path_22" data-name="Path 22" d="M118.1,55.695h0V0h0a13.865,13.865,0,0,1,13.762,12.184l3,24.575A16.888,16.888,0,0,1,118.1,55.695Z" transform="translate(-96.13)" fill="#369151"/>
    <path id="Path_23" data-name="Path 23" d="M67.9,131.415l-5.927,3.116V123.143l8.013-4.213L67.9,114.962l-5.927,3.116v-6.551H57.492V126.3l-5.926-3.116-2.087,3.968,8.013,4.213v40.007h4.483V139.6l8.013-4.213Z" transform="translate(-37.767 -94.859)" fill="#804d00"/>
  </g>
</svg>
