<svg xmlns="http://www.w3.org/2000/svg" width="74" height="63.007" viewBox="0 0 74 63.007">
  <g id="humanitarian" transform="translate(0 -20.063)">
    <path id="Path_13" data-name="Path 13" d="M9.284,33.767A9.981,9.981,0,0,0,.039,44.388a8.825,8.825,0,0,0,9.5,8.087,7.666,7.666,0,0,0,6.921-8.384,6.506,6.506,0,0,0-7.281-5.746,5.341,5.341,0,0,0-4.549,6.2,4.5,4.5,0,0,0,1.778,2.723,3.86,3.86,0,0,0,3.4.58A3.315,3.315,0,0,0,11.7,46.339a2.77,2.77,0,0,0-.005-2.811,1.936,1.936,0,0,0-1.58-1,1.761,1.761,0,0,0-1.316.25,1.9,1.9,0,0,0-.771,1.485,1.369,1.369,0,0,0,.394.979,1.27,1.27,0,0,1-.409-.195,1.906,1.906,0,0,1-.7-1.069,2.641,2.641,0,0,1,2.3-2.928,3.8,3.8,0,0,1,4.133,3.386A4.953,4.953,0,0,1,9.249,49.75a6.109,6.109,0,0,1-6.482-5.61A7.263,7.263,0,0,1,9.5,36.5l.1-.006H64.395l.1.006a7.264,7.264,0,0,1,6.735,7.642,6.108,6.108,0,0,1-6.482,5.61,4.952,4.952,0,0,1-4.493-5.313,3.8,3.8,0,0,1,4.133-3.386,2.64,2.64,0,0,1,2.3,2.928,1.905,1.905,0,0,1-.7,1.069,1.274,1.274,0,0,1-.408.195,1.37,1.37,0,0,0,.393-.979,1.9,1.9,0,0,0-.77-1.485,1.76,1.76,0,0,0-1.316-.25,1.938,1.938,0,0,0-1.58,1,2.771,2.771,0,0,0,0,2.811,3.312,3.312,0,0,0,1.887,1.512,3.86,3.86,0,0,0,3.4-.58,4.5,4.5,0,0,0,1.778-2.723,5.342,5.342,0,0,0-4.549-6.2,6.506,6.506,0,0,0-7.281,5.746,7.666,7.666,0,0,0,6.922,8.384,8.824,8.824,0,0,0,9.5-8.087,9.981,9.981,0,0,0-9.246-10.621,2.351,2.351,0,0,0-.321-.012H9.606a2.484,2.484,0,0,0-.321.013Zm-5.158-13.7a1.37,1.37,0,0,0-1.37,1.37v2.739a1.369,1.369,0,0,0,.4.968l5.479,5.479a1.369,1.369,0,0,0,.968.4H64.394a1.369,1.369,0,0,0,.968-.4l5.479-5.479a1.369,1.369,0,0,0,.4-.968V21.433a1.37,1.37,0,0,0-1.37-1.37ZM5.5,22.8H68.5v.8l-4.677,4.677H10.172L5.5,23.6ZM20.563,41.979a1.37,1.37,0,0,0-1.37,1.37V81.7a1.37,1.37,0,0,0,2.13,1.14l7.791-5.195a1.37,1.37,0,0,0,.61-1.116l.427-24.94v-.023c0-.9,2.755-.924,2.739-.025v21.94a1.37,1.37,0,0,0,2.13,1.14l8.218-5.479a1.37,1.37,0,0,0,.61-1.14V51.567c0-.915,2.739-.915,2.739,0v13.7a1.37,1.37,0,0,0,1.983,1.225l5.479-2.739a1.37,1.37,0,0,0,.757-1.225V43.348a1.37,1.37,0,0,0-1.37-1.37H20.563Zm1.37,2.739H52.067V61.678l-2.739,1.37V51.567c0-4.566-8.218-4.566-8.218,0v15.7L35.63,70.923V51.591c.081-4.581-8.218-4.606-8.218-.024v-.024L27,75.765l-5.065,3.377V44.718Z" transform="translate(0)" fill="#f9a602"/>
  </g>
</svg>
