<svg xmlns="http://www.w3.org/2000/svg" width="70.267" height="76.518" viewBox="0 0 70.267 76.518">
  <g id="medal" transform="translate(-20.75)">
    <circle id="Ellipse_13" data-name="Ellipse 13" cx="30.381" cy="30.381" r="30.381" transform="translate(25.434 0)" fill="#ffd15c"/>
    <g id="Group_19" data-name="Group 19" transform="translate(20.75 48.064)">
      <path id="Path_24" data-name="Path 24" d="M31.2,319.7,20.75,337.82l12.2-.648,5.543,10.89,9.67-16.765A30.35,30.35,0,0,1,31.2,319.7Z" transform="translate(-20.75 -319.61)" fill="#40596b"/>
      <path id="Path_25" data-name="Path 25" d="M321.965,319.1a30.36,30.36,0,0,1-16.915,11.658l9.7,16.795,5.543-10.89,12.2.648Z" transform="translate(-262.227 -319.1)" fill="#40596b"/>
    </g>
    <circle id="Ellipse_14" data-name="Ellipse 14" cx="22.021" cy="22.021" r="22.021" transform="translate(33.794 8.36)" fill="#f8b64c"/>
    <path id="Path_26" data-name="Path 26" d="M181.587,116.1a1.15,1.15,0,0,0-.633-1.958l-8.691-1.265a1.133,1.133,0,0,1-.859-.633l-3.886-7.878a1.149,1.149,0,0,0-2.064,0l-3.871,7.878a1.2,1.2,0,0,1-.859.633l-8.691,1.265a1.15,1.15,0,0,0-.633,1.958l6.281,6.13a1.161,1.161,0,0,1,.331,1.009l-1.476,8.646a1.147,1.147,0,0,0,1.672,1.205l7.772-4.082a1.122,1.122,0,0,1,1.069,0l7.772,4.082a1.154,1.154,0,0,0,1.672-1.205L175,123.242a1.133,1.133,0,0,1,.331-1.009Z" transform="translate(-110.679 -88.101)" fill="#fff"/>
  </g>
</svg>
