<svg xmlns="http://www.w3.org/2000/svg" width="77" height="86.192" viewBox="0 0 77 86.192">
  <g id="pencil-case" transform="translate(0 0.001)">
    <path id="Path_27" data-name="Path 27" d="M184.37,113.156H168.34l3.154,49.571a4.87,4.87,0,0,0,9.721,0Zm0,0" transform="translate(-140.001 -94.108)" fill="#596674"/>
    <path id="Path_28" data-name="Path 28" d="M178.077,166.974a4.87,4.87,0,0,1-6.583-4.246l-3.154-49.571h3.444l3.154,49.571a4.871,4.871,0,0,0,3.139,4.246Zm0,0" transform="translate(-140.001 -94.108)" fill="#565c62"/>
    <path id="Path_29" data-name="Path 29" d="M165.967.525,160.294,6.2a9.978,9.978,0,0,0,0,14.111l6.939,6.939,6.938-6.939a9.977,9.977,0,0,0,0-14.111L168.5.525a1.79,1.79,0,0,0-2.532,0Zm0,0" transform="translate(-130.88 -0.001)" fill="#efedee"/>
    <path id="Path_30" data-name="Path 30" d="M163.739,6.2a9.977,9.977,0,0,0,0,14.111l5.216,5.216-1.722,1.722-6.939-6.938a9.979,9.979,0,0,1,0-14.111L165.966.523a1.791,1.791,0,0,1,2.532,0l.456.456Zm0,0" transform="translate(-130.879)" fill="#d9d7d8"/>
    <path id="Path_31" data-name="Path 31" d="M185.168,23.058a3.273,3.273,0,0,1-.9-2.261V16.542a3.287,3.287,0,0,0-3.287-3.287,3.287,3.287,0,0,1-3.287-3.287v-.3A3.287,3.287,0,0,0,174.4,6.386a3.285,3.285,0,0,1-.505-.039c.047-.049.092-.1.141-.147L179.712.527a1.79,1.79,0,0,1,2.532,0L187.916,6.2a9.977,9.977,0,0,1,0,14.111Zm0,0" transform="translate(-144.624 -0.003)" fill="#fd6f71"/>
    <path id="Path_32" data-name="Path 32" d="M177.483,6.2a9.977,9.977,0,0,0-.89,1.022,3.276,3.276,0,0,0-2.19-.836,3.369,3.369,0,0,1-.505-.039c.047-.049.092-.1.141-.147L179.711.527a1.79,1.79,0,0,1,2.532,0l.456.456Zm0,0" transform="translate(-144.624 -0.003)" fill="#e36465"/>
    <path id="Path_33" data-name="Path 33" d="M168.34,113.156h16.029l-.521,8.2H168.861Zm0,0" transform="translate(-140.001 -94.108)" fill="#d9d7d8"/>
    <path id="Path_34" data-name="Path 34" d="M168.862,121.354l-.521-8.2h3.444l.522,8.2Zm0,0" transform="translate(-140.001 -94.108)" fill="#bab8b9"/>
    <path id="Path_35" data-name="Path 35" d="M390.585,169.465a3.225,3.225,0,0,0-3.225,3.225v23.554a3.225,3.225,0,0,0,6.45,0V172.69A3.225,3.225,0,0,0,390.585,169.465Zm0,0" transform="translate(-322.15 -140.937)" fill="#bab8b9"/>
    <path id="Path_36" data-name="Path 36" d="M305.574,19.169v-5.43l7.2-13.4a.638.638,0,0,1,1.124,0l7.2,13.4v5.43Zm0,0" transform="translate(-254.133 -0.001)" fill="#85cdea"/>
    <path id="Path_37" data-name="Path 37" d="M308.911,13.739v5.43h-3.336v-5.43l7.2-13.4a.638.638,0,0,1,1.125,0l1.105,2.058Zm0,0" transform="translate(-254.133 -0.001)" fill="#78b7d2"/>
    <path id="Path_38" data-name="Path 38" d="M305.574,81.613H321.1v45.392H305.574Zm0,0" transform="translate(-254.133 -67.875)" fill="#85cdea"/>
    <path id="Path_39" data-name="Path 39" d="M305.574,81.613h3.336v45.392h-3.336Zm0,0" transform="translate(-254.133 -67.875)" fill="#78b7d2"/>
    <path id="Path_40" data-name="Path 40" d="M316.567,81.613H301.3a1.02,1.02,0,0,0-1.02,1.019v20.762a1.019,1.019,0,0,0,1.02,1.019h15.27a1.019,1.019,0,0,0,1.019-1.019V82.633A1.019,1.019,0,0,0,316.567,81.613Zm0,0" transform="translate(-249.728 -67.875)" fill="#596674"/>
    <path id="Path_41" data-name="Path 41" d="M303.614,82.633v20.762a1.019,1.019,0,0,0,1.019,1.019H301.3a1.02,1.02,0,0,1-1.02-1.019V82.633a1.019,1.019,0,0,1,1.02-1.019h3.336A1.019,1.019,0,0,0,303.614,82.633Zm0,0" transform="translate(-249.728 -67.875)" fill="#565c62"/>
    <path id="Path_42" data-name="Path 42" d="M36.867,18.624V13.348l7-13.021a.62.62,0,0,1,1.093,0l7,13.021v5.276Zm0,0" transform="translate(-30.661 -0.001)" fill="#fa9f6a"/>
    <path id="Path_43" data-name="Path 43" d="M37.7,18.624h-.834V13.348l7-13.021a.62.62,0,0,1,1.093,0l1.305,2.43Zm0,0" transform="translate(-30.661 -0.001)" fill="#eb8f59"/>
    <path id="Path_44" data-name="Path 44" d="M59.625,6.218,62.79.327a.62.62,0,0,1,1.093,0l3.165,5.891Zm0,0" transform="translate(-49.588 -0.001)" fill="#596674"/>
    <path id="Path_45" data-name="Path 45" d="M63.334,6.218H59.625L62.79.327a.62.62,0,0,1,1.093,0l1.308,2.435Zm0,0" transform="translate(-49.588 -0.001)" fill="#565c62"/>
    <path id="Path_46" data-name="Path 46" d="M51.952,79.289,48.078,82H40.741l-3.874-2.715v44.1H51.952Zm0,0" transform="translate(-30.661 -65.942)" fill="#46926f"/>
    <path id="Path_47" data-name="Path 47" d="M59.883,123.39h7.336V82l-3.668-2.715L59.883,82Zm0,0" transform="translate(-49.802 -65.942)" fill="#58b78c"/>
    <path id="Path_48" data-name="Path 48" d="M83.567,331.9H19.995a4.026,4.026,0,0,1-4.026-4.026v-32.43H87.593v32.43a4.026,4.026,0,0,1-4.026,4.026Zm0,0" transform="translate(-13.281 -245.709)" fill="#eb8f59"/>
    <path id="Path_49" data-name="Path 49" d="M21.172,327.875v-32.43h-5.2v32.43a4.026,4.026,0,0,0,4.026,4.026h5.2A4.026,4.026,0,0,1,21.172,327.875Zm0,0" transform="translate(-13.28 -245.709)" fill="#e0824a"/>
    <path id="Path_50" data-name="Path 50" d="M75.513,269.861H1.488A1.487,1.487,0,0,1,0,268.375V258.363a1.488,1.488,0,0,1,1.487-1.487H75.513A1.487,1.487,0,0,1,77,258.363v10.012A1.487,1.487,0,0,1,75.513,269.861Zm0,0" transform="translate(0 -213.633)" fill="#fa9f6a"/>
    <path id="Path_51" data-name="Path 51" d="M5.9,268.375V258.363a1.487,1.487,0,0,1,1.487-1.487h-5.9A1.488,1.488,0,0,0,0,258.363v10.012a1.487,1.487,0,0,0,1.487,1.487h5.9A1.487,1.487,0,0,1,5.9,268.375Zm0,0" transform="translate(0 -213.633)" fill="#eb8f59"/>
    <path id="Path_52" data-name="Path 52" d="M350.908,277.514a5.878,5.878,0,0,1-5.878-5.878V256.875h11.755v14.762A5.877,5.877,0,0,1,350.908,277.514Zm0,0" transform="translate(-286.947 -213.632)" fill="#fadc60"/>
    <g id="Group_20" data-name="Group 20" transform="translate(23.521 64.884)">
      <path id="Path_53" data-name="Path 53" d="M146.327,389.5a1.262,1.262,0,0,1-1.1-.633,1.818,1.818,0,0,0-3.154,0,1.263,1.263,0,0,1-2.189-1.259,4.343,4.343,0,0,1,7.532,0,1.263,1.263,0,0,1-1.094,1.893Zm0,0" transform="translate(-139.72 -385.43)" fill="#464c51"/>
      <path id="Path_54" data-name="Path 54" d="M277.55,389.505a1.262,1.262,0,0,1-1.1-.633,1.818,1.818,0,0,0-3.154,0,1.262,1.262,0,0,1-2.189-1.258,4.343,4.343,0,0,1,7.532,0,1.263,1.263,0,0,1-1.094,1.892Zm0,0" transform="translate(-248.853 -385.433)" fill="#464c51"/>
      <path id="Path_55" data-name="Path 55" d="M213.963,407.75a2.983,2.983,0,0,1-2.983-2.983v-2.236h5.966v2.236a2.983,2.983,0,0,1-2.983,2.983Zm0,0" transform="translate(-198.984 -399.652)" fill="#464c51"/>
    </g>
    <path id="Path_56" data-name="Path 56" d="M284.2,420.513h-1.969a1.263,1.263,0,0,1,0-2.525H284.2a1.263,1.263,0,0,1,0,2.525Zm0,0" transform="translate(-233.666 -347.623)" fill="#efedee"/>
    <path id="Path_57" data-name="Path 57" d="M152.971,420.513H151a1.263,1.263,0,0,1,0-2.525h1.969a1.263,1.263,0,0,1,0,2.525Zm0,0" transform="translate(-124.531 -347.623)" fill="#efedee"/>
    <path id="Path_58" data-name="Path 58" d="M373.708,293.07a1.262,1.262,0,0,1-1.263-1.263v-8.048a1.263,1.263,0,0,1,2.525,0v8.048A1.262,1.262,0,0,1,373.708,293.07Zm0,0" transform="translate(-309.746 -234.941)" fill="#d9bd4a"/>
  </g>
</svg>
