<svg id="technical" xmlns="http://www.w3.org/2000/svg" width="82" height="82" viewBox="0 0 82 82">
  <g id="Group_18" data-name="Group 18">
    <g id="Group_9" data-name="Group 9" transform="translate(8.505 8.505)">
      <g id="Group_8" data-name="Group 8">
        <path id="Path_14" data-name="Path 14" d="M104.992,118.095a29.474,29.474,0,0,1-9.562-1.817c-8.05-2.8-16.689-8.547-24.325-16.183S57.722,83.82,54.922,75.77c-2.908-8.361-2.308-15.165,1.688-19.161s10.8-4.6,19.161-1.688c8.05,2.8,16.689,8.547,24.325,16.183s13.383,16.275,16.183,24.325c2.908,8.361,2.308,15.165-1.688,19.161h0C112.262,116.919,108.981,118.095,104.992,118.095ZM66.206,55.659c-3.289,0-5.948.925-7.785,2.761-3.264,3.263-3.647,9.126-1.08,16.507,2.676,7.692,8.207,15.987,15.575,23.355s15.663,12.9,23.355,15.575c7.382,2.566,13.243,2.183,16.507-1.08h0c3.264-3.263,3.647-9.126,1.08-16.507-2.676-7.692-8.207-15.987-15.575-23.355s-15.663-12.9-23.355-15.575A27.018,27.018,0,0,0,66.206,55.659Z" transform="translate(-53.105 -53.105)" fill="#c600ff"/>
      </g>
    </g>
    <g id="Group_11" data-name="Group 11" transform="translate(8.505 8.505)">
      <g id="Group_10" data-name="Group 10">
        <path id="Path_15" data-name="Path 15" d="M66.21,118.095c-3.989,0-7.271-1.176-9.6-3.5-4-4-4.6-10.8-1.688-19.161,2.8-8.05,8.547-16.689,16.183-24.325S87.38,57.721,95.431,54.921c8.362-2.909,15.166-2.307,19.161,1.688h0c4,4,4.6,10.8,1.688,19.161-2.8,8.05-8.547,16.689-16.183,24.325s-16.275,13.383-24.325,16.183A29.473,29.473,0,0,1,66.21,118.095ZM105,55.659a27.012,27.012,0,0,0-8.722,1.682c-7.692,2.676-15.987,8.207-23.355,15.575s-12.9,15.663-15.575,23.355c-2.567,7.381-2.185,13.244,1.08,16.507s9.128,3.646,16.507,1.08c7.692-2.676,15.987-8.207,23.355-15.575s12.9-15.663,15.575-23.355c2.567-7.381,2.185-13.244-1.08-16.507h0C110.943,56.584,108.285,55.659,105,55.659Z" transform="translate(-53.106 -53.105)" fill="#00f5f4"/>
      </g>
    </g>
    <g id="Group_13" data-name="Group 13" transform="translate(20.5)">
      <g id="Group_12" data-name="Group 12">
        <path id="Path_16" data-name="Path 16" d="M148.5,82C137.005,82,128,63.991,128,41s9.005-41,20.5-41S169,18.009,169,41,159.995,82,148.5,82Zm0-79.437c-9.723,0-17.937,17.6-17.937,38.438s8.214,38.438,17.938,38.438S166.438,61.835,166.438,41,158.223,2.563,148.5,2.563Z" transform="translate(-128)" fill="#0076f1"/>
      </g>
    </g>
    <g id="Group_14" data-name="Group 14" transform="translate(32.031 32.066)">
      <circle id="Ellipse_11" data-name="Ellipse 11" cx="8.951" cy="8.951" r="8.951" fill="#0076f1"/>
    </g>
    <g id="Group_15" data-name="Group 15" transform="translate(40.063 35.647)">
      <circle id="Ellipse_12" data-name="Ellipse 12" cx="3.133" cy="3.133" r="3.133" fill="#57b0ef"/>
    </g>
    <g id="Group_17" data-name="Group 17" transform="translate(0 20.5)">
      <g id="Group_16" data-name="Group 16">
        <path id="Path_17" data-name="Path 17" d="M41,169c-22.991,0-41-9.005-41-20.5S18.009,128,41,128s41,9.005,41,20.5S63.991,169,41,169Zm0-38.437c-20.835,0-38.437,8.214-38.437,17.938S20.165,166.438,41,166.438s38.438-8.214,38.438-17.937S61.835,130.563,41,130.563Z" transform="translate(0 -128)" fill="#60f"/>
      </g>
    </g>
  </g>
</svg>
