<svg id="translate" xmlns="http://www.w3.org/2000/svg" width="91" height="91" viewBox="0 0 91 91">
  <path id="Path_59" data-name="Path 59" d="M281.139,85.333H245.119a1.942,1.942,0,0,0-.6.095l-.455.152a1.9,1.9,0,0,0-1.2,2.4l.006.018,19.057,55.688-12.55,14.34a1.9,1.9,0,0,0,1.429,3.143h30.333a9.479,9.479,0,0,0,9.479-9.479V94.812A9.479,9.479,0,0,0,281.139,85.333Z" transform="translate(-199.619 -70.166)" fill="#eceff1"/>
  <path id="Path_60" data-name="Path 60" d="M267.912,406.444a1.9,1.9,0,0,0-1.725-1.111H247.229a1.9,1.9,0,0,0-1.774,2.563l5.688,15.167a1.9,1.9,0,0,0,1.437,1.2,2.1,2.1,0,0,0,.338.03,1.9,1.9,0,0,0,1.426-.648l13.271-15.167A1.9,1.9,0,0,0,267.912,406.444Z" transform="translate(-201.729 -333.291)" fill="#1976d2"/>
  <g id="Group_21" data-name="Group 21" transform="translate(53.083 34.125)">
    <path id="Path_61" data-name="Path 61" d="M327.1,217.125H300.562a1.9,1.9,0,0,1,0-3.792H327.1a1.9,1.9,0,0,1,0,3.792Z" transform="translate(-298.666 -209.541)" fill="#455a64"/>
    <path id="Path_62" data-name="Path 62" d="M364.562,199.583a1.9,1.9,0,0,1-1.9-1.9V193.9a1.9,1.9,0,1,1,3.792,0v3.792A1.9,1.9,0,0,1,364.562,199.583Z" transform="translate(-351.291 -192)" fill="#455a64"/>
    <path id="Path_63" data-name="Path 63" d="M332.57,239.875a1.9,1.9,0,0,1-1.1-3.439c8.3-5.9,14.37-17.927,14.37-21.207a1.9,1.9,0,1,1,3.792,0c0,5-7.306,18.147-15.963,24.293A1.9,1.9,0,0,1,332.57,239.875Z" transform="translate(-324.987 -209.541)" fill="#455a64"/>
    <path id="Path_64" data-name="Path 64" d="M347.729,287.5a1.9,1.9,0,0,1-1.282-.5c-1.373-1.259-13.491-12.452-15.641-17.749a1.9,1.9,0,0,1,3.515-1.429c1.551,3.822,11.132,13.119,14.693,16.376a1.9,1.9,0,0,1-1.285,3.3Z" transform="translate(-324.979 -253.379)" fill="#455a64"/>
  </g>
  <path id="Path_65" data-name="Path 65" d="M66.252,73.323,41.606,1.282A1.9,1.9,0,0,0,39.813,0H9.479A9.479,9.479,0,0,0,0,9.479V66.354a9.479,9.479,0,0,0,9.479,9.479H64.458a1.9,1.9,0,0,0,1.794-2.51Z" fill="#2196f3"/>
  <g id="Group_22" data-name="Group 22" transform="translate(15.194 22.876)">
    <path id="Path_66" data-name="Path 66" d="M106.314,158.918a1.9,1.9,0,0,1-1.786-1.259l-7.693-21.544-7.693,21.544a1.9,1.9,0,0,1-3.568-1.274l9.479-26.542a1.972,1.972,0,0,1,3.568,0l9.479,26.542a1.9,1.9,0,0,1-1.138,2.423A1.92,1.92,0,0,1,106.314,158.918Z" transform="translate(-85.487 -128.711)" fill="#fafafa"/>
    <path id="Path_67" data-name="Path 67" d="M126.812,217.125h-7.583a1.9,1.9,0,1,1,0-3.792h7.583a1.9,1.9,0,1,1,0,3.792Z" transform="translate(-111.673 -198.293)" fill="#fafafa"/>
  </g>
</svg>
